<svg width="48" height="48" viewBox="0 0 48 48" fill="none" xmlns="http://www.w3.org/2000/svg">
<g clip-path="url(#clip0_18368_818)">
<path d="M10 43C8.33333 43 6.91667 42.4167 5.75 41.25C4.58333 40.0833 4 38.6667 4 37V31H10V3L13 6L16 3L19 6L22 3L25 6L28 3L31 6L34 3L37 6L40 3V37C40 38.6667 39.4167 40.0833 38.25 41.25C37.0833 42.4167 35.6667 43 34 43H10ZM34 39C34.5667 39 35.0417 38.8083 35.425 38.425C35.8083 38.0417 36 37.5667 36 37V9H14V31H32V37C32 37.5667 32.1917 38.0417 32.575 38.425C32.9583 38.8083 33.4333 39 34 39ZM16 17V13H28V17H16ZM16 23V19H28V23H16ZM32 17C31.4333 17 30.9583 16.8083 30.575 16.425C30.1917 16.0417 30 15.5667 30 15C30 14.4333 30.1917 13.9583 30.575 13.575C30.9583 13.1917 31.4333 13 32 13C32.5667 13 33.0417 13.1917 33.425 13.575C33.8083 13.9583 34 14.4333 34 15C34 15.5667 33.8083 16.0417 33.425 16.425C33.0417 16.8083 32.5667 17 32 17ZM32 23C31.4333 23 30.9583 22.8083 30.575 22.425C30.1917 22.0417 30 21.5667 30 21C30 20.4333 30.1917 19.9583 30.575 19.575C30.9583 19.1917 31.4333 19 32 19C32.5667 19 33.0417 19.1917 33.425 19.575C33.8083 19.9583 34 20.4333 34 21C34 21.5667 33.8083 22.0417 33.425 22.425C33.0417 22.8083 32.5667 23 32 23ZM10 39H28V35H8V37C8 37.5667 8.19167 38.0417 8.575 38.425C8.95833 38.8083 9.43333 39 10 39Z" fill="#17A2B8"/>
</g>
<defs>
<clipPath id="clip0_18368_818">
<rect width="48" height="48" fill="white"/>
</clipPath>
</defs>
</svg>
