<svg width="41" height="40" viewBox="0 0 41 40" fill="none" xmlns="http://www.w3.org/2000/svg">
<path d="M40.1993 11.2852V28.7145C40.1993 34.9469 35.1465 40 28.9139 40H11.4845C5.25152 40 0.199036 34.9469 0.199036 28.7145V11.2852C0.199036 5.05217 5.25152 0 11.4845 0H28.9139C35.1465 0 40.1993 5.05217 40.1993 11.2852Z" fill="#4561B6"/>
<path d="M16.0866 40.0003L16.115 25.7135H11.8511V20.6223H16.1137V17.6537H16.0944L16.0988 17.2294C16.1118 15.9296 16.1825 14.4121 16.6062 13.0104C17.0478 11.5502 17.8166 10.3975 18.9569 9.48421C19.9175 8.71642 21.0858 8.19562 22.3358 7.98039C23.2179 7.82808 24.1436 7.75488 25.1659 7.75488C26.3535 7.75488 27.6524 7.85518 29.1363 8.06169L29.4982 8.11277V12.8908L28.5074 12.8986L27.0111 12.9092C25.9524 12.917 24.8444 13.0335 23.9147 13.8262C22.9946 14.6124 22.5121 15.834 22.5196 17.3602L22.4981 20.0975L22.4943 20.6223H29.0796L28.1022 25.8913H22.5828L22.5622 40.0003H16.0866Z" fill="white"/>
</svg>
