<svg width="36" height="30" viewBox="0 0 36 30" fill="none" xmlns="http://www.w3.org/2000/svg">
<path d="M7.99999 13.25L6.33333 14.1667C5.94444 14.3889 5.52777 14.4444 5.08333 14.3333C4.63888 14.2222 4.30555 13.9722 4.08333 13.5833L0.749993 7.75C0.527771 7.36111 0.472215 6.94444 0.583327 6.5C0.694438 6.05556 0.944438 5.72222 1.33333 5.5L10.9167 0H13.8333C14.0833 0 14.2847 0.0763889 14.4375 0.229167C14.5903 0.381944 14.6667 0.583333 14.6667 0.833333V1.66667C14.6667 2.58333 14.993 3.36806 15.6458 4.02083C16.2986 4.67361 17.0833 5 18 5C18.9167 5 19.7014 4.67361 20.3542 4.02083C21.0069 3.36806 21.3333 2.58333 21.3333 1.66667V0.833333C21.3333 0.583333 21.4097 0.381944 21.5625 0.229167C21.7153 0.0763889 21.9167 0 22.1667 0H25.0833L34.6667 5.5C35.0555 5.72222 35.3055 6.05556 35.4167 6.5C35.5278 6.94444 35.4722 7.36111 35.25 7.75L31.9167 13.5833C31.6944 13.9722 31.368 14.2153 30.9375 14.3125C30.5069 14.4097 30.0833 14.3472 29.6667 14.125L28 13.2917V28.3333C28 28.8056 27.8403 29.2014 27.5208 29.5208C27.2014 29.8403 26.8055 30 26.3333 30H9.66666C9.19444 30 8.7986 29.8403 8.47916 29.5208C8.15972 29.2014 7.99999 28.8056 7.99999 28.3333V13.25ZM11.3333 7.66667V26.6667H24.6667V7.66667L29.8333 10.5L31.5833 7.58333L24.4167 3.41667C24 4.83333 23.2153 6.00694 22.0625 6.9375C20.9097 7.86806 19.5555 8.33333 18 8.33333C16.4444 8.33333 15.0903 7.86806 13.9375 6.9375C12.7847 6.00694 12 4.83333 11.5833 3.41667L4.41666 7.58333L6.16666 10.5L11.3333 7.66667Z" fill="#7E4781"/>
</svg>
