<svg width="41" height="40" viewBox="0 0 41 40" fill="none" xmlns="http://www.w3.org/2000/svg">
<path d="M40.2002 11.2017V28.7983C40.2002 34.9843 35.1845 40 28.9985 40H9.96567C4.5715 40 0.19928 35.6272 0.19928 30.2336V11.2017C0.19928 5.01479 5.21501 0 11.401 0H28.9985C35.1845 0 40.2002 5.01479 40.2002 11.2017Z" fill="#3861B6"/>
<path d="M11.7848 8.93945C13.255 8.93945 14.4464 10.133 14.4464 11.601C14.4464 13.0721 13.255 14.2651 11.7848 14.2651C10.3102 14.2651 9.12134 13.0721 9.12134 11.601C9.12134 10.133 10.3102 8.93945 11.7848 8.93945ZM9.48577 16.285H14.0819V31.0597H9.48577V16.285Z" fill="white"/>
<path d="M16.9636 16.2845H21.3661V18.3035H21.428C22.0404 17.1417 23.5395 15.917 25.7738 15.917C30.4195 15.917 31.2782 18.9757 31.2782 22.9555V31.0592H26.6917V23.8756C26.6917 22.1612 26.6581 19.9562 24.3042 19.9562C21.9146 19.9562 21.5501 21.8229 21.5501 23.7504V31.0592H16.9636V16.2845Z" fill="white"/>
</svg>
