<svg width="189" height="53" viewBox="0 0 189 53" fill="none" xmlns="http://www.w3.org/2000/svg">
<path fill-rule="evenodd" clip-rule="evenodd" d="M62.2299 13.6125V21.6639L62.0821 24.1457H62.2299C62.7331 23.2993 63.5174 22.5677 64.5978 21.9797C65.6518 21.3926 66.8391 21.0863 68.0456 21.0901C70.3247 21.0901 72.0707 21.7643 73.2693 23.1272C74.4678 24.4902 75.0746 26.3119 75.0746 28.5929V39.3573C75.0934 39.3859 75.1037 39.4194 75.1042 39.4537C75.1042 39.7263 74.3201 40.5438 73.3729 40.5438C72.4714 40.5438 71.7388 39.8254 71.6506 39.5109H71.6269V29.0953C71.6269 25.7958 70.1126 24.146 67.0841 24.146C66.4126 24.1327 65.7473 24.2762 65.1411 24.5651C64.5348 24.854 64.0043 25.2803 63.5917 25.8101C62.6992 26.8904 62.2217 28.2539 62.2451 29.655V39.3844C62.2547 39.406 62.2598 39.4293 62.2599 39.453C62.2599 39.7256 61.4758 40.5431 60.5286 40.5431C59.6541 40.5431 58.9185 39.846 58.8108 39.5246H58.7969V13.4442H58.8103C58.9162 13.1227 59.6403 12.4258 60.5285 12.4258C61.4756 12.4258 62.2597 13.2435 62.2597 13.5161C62.2592 13.5504 62.2488 13.5838 62.2299 13.6125ZM86.1741 34.9941L86.1731 34.992C86.0548 34.7339 86.4248 33.701 87.2535 33.3709C88.0969 33.0266 89.0884 33.5 89.2067 33.7726L89.2088 33.7779L89.2215 33.7726C90.1834 36.0105 91.8555 37.1304 94.2085 37.1304C95.2887 37.1304 96.1619 36.9009 96.8573 36.4418C97.5527 35.9827 97.8931 35.3659 97.8931 34.6201C97.8931 33.4581 97.0497 32.6689 95.3774 32.2531L91.6632 31.3779C90.4444 31.063 89.3051 30.4961 88.3189 29.7138C87.8101 29.3308 87.4007 28.8312 87.1252 28.257C86.8497 27.6828 86.7161 27.0509 86.7357 26.4143C86.7357 24.8364 87.4608 23.5597 88.8961 22.5695C90.3314 21.5792 92.0334 21.0919 94.0162 21.0919C95.5355 21.0647 97.0354 21.4357 98.3669 22.1677C99.608 22.8491 100.575 23.9389 101.104 25.2522C101.11 25.2612 101.115 25.2707 101.119 25.2807C101.208 25.5391 100.823 26.5431 100.009 26.8444C99.2193 27.1454 98.3218 26.703 98.1499 26.4373L98.1005 26.4571C97.4345 24.879 96.0286 24.0902 93.8978 24.0902C92.8769 24.0902 92.0039 24.291 91.3083 24.7069C90.6128 25.1229 90.2577 25.6826 90.2577 26.3854C90.2577 27.4039 91.0717 28.1068 92.6992 28.4655L96.3395 29.2976C98.0709 29.6851 99.3436 30.3589 100.172 31.306C100.973 32.1787 101.417 33.3206 101.415 34.5051C101.415 36.0975 100.735 37.4453 99.3879 38.5074C98.0414 39.5695 96.2952 40.0998 94.1789 40.1141C92.122 40.1141 90.4202 39.6269 89.0884 38.6508C87.7913 37.7292 86.7726 36.4686 86.1437 35.007L86.1741 34.9941ZM107.474 26.5579C107.478 26.5916 107.472 26.6258 107.456 26.6562C107.323 26.8997 106.258 27.3448 105.385 26.9717C104.531 26.6064 104.186 25.6109 104.296 25.3392L104.29 25.3364C104.719 24.2605 105.547 23.2706 106.805 22.3668C108.063 21.463 109.705 21.0038 111.763 21.0038C114.115 21.0038 116.069 21.6782 117.622 23.0124C119.176 24.3466 119.946 26.2257 119.946 28.6503V39.2967C119.955 39.3187 119.96 39.3424 119.961 39.3663C119.961 39.6388 119.221 40.4566 118.303 40.4566C117.456 40.4566 116.76 39.7595 116.659 39.438H116.646V36.9564H116.498C115.122 38.9935 113.109 40.0119 110.461 40.0407C108.508 40.0407 106.88 39.4956 105.563 38.4053C104.246 37.315 103.595 35.8661 103.595 34.0733C103.595 32.1223 104.364 30.6018 105.918 29.4977C107.472 28.3937 109.38 27.8336 111.659 27.8336C113.687 27.8336 115.344 28.1924 116.646 28.9239V28.4074C116.646 27.0876 116.188 26.0405 115.255 25.2515C114.298 24.4513 113.083 24.0279 111.836 24.0608C110.884 24.0477 109.945 24.2851 109.113 24.7494C108.372 25.1414 107.791 25.7815 107.474 26.5579ZM127.135 39.383C127.144 39.405 127.149 39.4287 127.149 39.4526C127.149 39.7252 126.41 40.5428 125.492 40.5428C124.645 40.5428 123.95 39.8456 123.848 39.5243H123.835V13.4442H123.848C123.956 13.1227 124.692 12.4258 125.566 12.4258C126.513 12.4258 127.298 13.2435 127.298 13.5161C127.298 13.5397 127.293 13.5629 127.283 13.5845V21.6785L127.135 24.1605H127.283C127.83 23.2854 128.674 22.5681 129.784 21.98C130.95 21.3808 132.246 21.0801 133.557 21.1048C135.939 21.1048 137.982 22.0086 139.713 23.8304C141.444 25.6523 142.303 27.9046 142.303 30.6016C142.303 33.2986 141.444 35.5509 139.713 37.3727C137.997 39.1946 135.939 40.0984 133.557 40.0984C132.246 40.1231 130.95 39.8224 129.784 39.2233C128.659 38.6492 127.83 37.9185 127.283 37.0427H127.135V39.383ZM79.3809 21.6785C79.3809 21.3916 80.1505 20.5884 81.1123 20.5884C82.0594 20.5884 82.8435 21.4061 82.8435 21.6785C82.8434 21.7011 82.8383 21.7235 82.8287 21.7439V39.5243H82.7969C82.6787 39.8611 81.9618 40.5428 81.0975 40.5428C80.2332 40.5428 79.5162 39.8611 79.3979 39.5243H79.3805L79.3809 21.6785ZM83.0507 18.3932V20.4302C82.8384 20.1086 82.5477 19.8463 82.206 19.6681C81.8642 19.4899 81.4827 19.4017 81.0975 19.4118C79.7805 19.4118 79.1441 20.5736 79.1441 20.5736V18.3932L81.0975 16.0692L83.0507 18.3932ZM108.326 36.2824C109.114 36.7899 110.037 37.0498 110.975 37.0284C112.41 37.0284 113.697 36.5119 114.866 35.479C116.035 34.4461 116.613 33.2269 116.613 31.821C115.636 31.0462 114.171 30.6589 112.218 30.659C110.546 30.659 109.273 31.0177 108.429 31.7203C107.586 32.4228 107.157 33.2552 107.157 34.202C107.157 35.0775 107.556 35.7661 108.326 36.2824ZM128.851 35.2927C129.388 35.8475 130.031 36.2884 130.742 36.5891C131.453 36.8898 132.218 37.044 132.99 37.0427C133.762 37.0413 134.526 36.8844 135.236 36.5812C135.946 36.2781 136.588 35.8349 137.123 35.2782C138.277 34.102 138.854 32.5383 138.854 30.6016C138.854 28.6649 138.277 27.1012 137.123 25.9249C136.588 25.3682 135.946 24.925 135.236 24.6219C134.526 24.3187 133.762 24.1617 132.99 24.1604C132.218 24.159 131.453 24.3133 130.742 24.614C130.031 24.9147 129.388 25.3557 128.851 25.9105C127.711 27.0725 127.149 28.6362 127.149 30.6016C127.149 32.567 127.711 34.1307 128.851 35.2927ZM152.748 31.092C152.748 25.2245 155.767 21.004 161.394 21.004C165.924 21.004 167.776 23.5093 168.634 25.6706C168.698 25.8348 168.733 26.009 168.737 26.1852C168.737 26.8373 168.222 27.2491 167.708 27.4552C167.462 27.523 167.208 27.5577 166.953 27.5582C166.694 27.5744 166.437 27.5062 166.221 27.3639C166.004 27.2216 165.84 27.0129 165.752 26.7691C165.1 25.0192 164.071 23.681 161.463 23.681C157.895 23.681 155.939 26.7003 155.939 31.0576C155.939 35.5524 157.86 38.4004 161.498 38.4004C164.174 38.4004 165.238 37.0966 165.89 35.2436C166.13 34.5917 166.61 34.3172 167.16 34.3172C167.407 34.3128 167.652 34.3596 167.88 34.4546C168.498 34.5919 168.978 35.0035 168.978 35.6211C168.979 35.8346 168.932 36.0456 168.841 36.2388C167.915 38.6064 166.096 41.0769 161.43 41.0769C155.87 41.0769 152.748 36.9938 152.748 31.092ZM180.221 21.004C185.71 21.004 188.936 24.9844 188.936 30.9555C188.936 36.9265 185.641 41.0433 180.289 41.0433C174.627 41.0433 171.333 37.0631 171.333 30.9555C171.334 25.0185 174.663 21.004 180.221 21.004ZM180.503 23.8633C176.797 23.8633 174.669 26.7115 174.669 31.2747C174.669 35.6325 176.728 38.6177 180.263 38.6177C184.002 38.6177 185.959 35.7012 185.959 31.1367C185.959 26.8136 184.002 23.8633 180.503 23.8633ZM147.913 36.3805C149.228 36.3805 150.239 37.3242 150.239 38.6725C150.239 40.0882 149.228 41.0318 147.913 41.0318C146.599 41.0318 145.588 40.088 145.588 38.6725C145.588 37.3244 146.599 36.3805 147.913 36.3805Z" fill="#4E0362"/>
<path d="M44.3674 7.46791C32.7261 8.08431 25.0111 14.6661 25.0111 14.6661L23.6839 15.8993L22.2599 14.6661C14.1443 8.43278 2.76518 7.46791 2.76518 7.46791C2.76518 7.46791 0 7.58848 0 10.4702V38.8716C0.124393 40.3191 1.50698 41.2172 2.75143 41.3781C14.4068 42.9461 19.1767 46.7393 22.5777 47.9993C22.5777 47.9993 23.5172 47.8919 23.8222 47.2219C24.1955 47.8657 25.0526 47.9993 25.0526 47.9993C29.712 46.2569 32.2552 42.5977 44.3674 41.3781C45.0627 41.3187 45.7227 41.046 46.2572 40.5974C46.7917 40.1488 47.1747 39.5461 47.3539 38.8716V10.4702C47.3539 7.88337 44.3674 7.46791 44.3674 7.46791ZM44.3674 38.8716C44.3674 38.8716 34.7307 39.0592 25.0526 45.4131V36.3249H22.398V45.3051C22.398 45.3051 14.3099 39.85 2.75143 38.8716V10.4702C2.75143 10.4702 14.4759 10.7383 22.2874 18.3513V27.3316H25.0526V18.3513C25.0526 18.3513 32.7122 10.4702 44.3674 10.4702V38.8716ZM2.88957 4.33199V1.59726C2.88957 0.458066 3.87114 0.645613 3.87114 0.645613C12.706 2.96437 18.8861 10.2021 18.8861 10.2021C10.6045 5.18935 2.88957 4.33199 2.88957 4.33199ZM14.2546 3.91654V0.91371C14.3929 -0.413206 15.5128 0.0960227 15.5128 0.0960227C21.167 3.87565 23.6562 11.7032 23.6562 11.7032C23.6562 11.7032 26.1312 3.90262 31.7997 0.136211C31.7997 0.136211 32.9196 -0.373191 33.0579 0.953898V3.94281C33.0579 3.94281 28.2464 7.21356 23.6562 13.057C19.0521 7.19982 14.2546 3.91654 14.2546 3.91654ZM28.4261 10.2026C28.4261 10.2026 34.6063 2.99116 43.4418 0.672405C43.4418 0.672405 44.4236 0.484685 44.4236 1.62406V4.34487C44.4236 4.34487 36.7077 5.21664 28.4261 10.2026Z" fill="#4E0362"/>
</svg>
