<svg width="24" height="23" viewBox="0 0 24 23" fill="none" xmlns="http://www.w3.org/2000/svg">
<path d="M12 0.862305L22.2442 6.96018C22.5043 7.12935 22.7093 7.35189 22.859 7.62781C23.0085 7.90372 23.0833 8.19724 23.0833 8.50835V20.8076C23.0833 21.397 22.8791 21.8958 22.4708 22.3042C22.0625 22.7125 21.5636 22.9167 20.9743 22.9167H3.02567C2.43631 22.9167 1.93746 22.7125 1.52913 22.3042C1.12079 21.8958 0.916626 21.397 0.916626 20.8076V8.50835C0.916626 8.19724 0.99139 7.90372 1.14092 7.62781C1.29064 7.35189 1.49558 7.12935 1.75575 6.96018L12 0.862305ZM12 13.7583L21.1 8.33335L12 2.90835L2.89996 8.33335L12 13.7583ZM12 15.8044L2.66663 10.2268V20.8076C2.66663 20.9124 2.70026 20.9985 2.76754 21.0658C2.83482 21.133 2.92086 21.1667 3.02567 21.1667H20.9743C21.0791 21.1667 21.1651 21.133 21.2324 21.0658C21.2997 20.9985 21.3333 20.9124 21.3333 20.8076V10.2268L12 15.8044ZM12 21.1667H21.3333H2.66663H12Z" fill="#494949"/>
</svg>
