<svg width="36" height="48" viewBox="0 0 36 48" fill="none" xmlns="http://www.w3.org/2000/svg">
<path d="M31.5 0H4.5C3.30653 0 2.16193 0.474106 1.31802 1.31802C0.474106 2.16193 0 3.30653 0 4.5V43.5C0 44.6935 0.474106 45.8381 1.31802 46.682C2.16193 47.5259 3.30653 48 4.5 48H31.5C32.6935 48 33.8381 47.5259 34.682 46.682C35.5259 45.8381 36 44.6935 36 43.5V4.5C36 3.30653 35.5259 2.16193 34.682 1.31802C33.8381 0.474106 32.6935 0 31.5 0ZM33 43.5C33 43.8978 32.842 44.2794 32.5607 44.5607C32.2794 44.842 31.8978 45 31.5 45H4.5C4.10218 45 3.72064 44.842 3.43934 44.5607C3.15804 44.2794 3 43.8978 3 43.5V4.5C3 4.10218 3.15804 3.72064 3.43934 3.43934C3.72064 3.15804 4.10218 3 4.5 3H31.5C31.8978 3 32.2794 3.15804 32.5607 3.43934C32.842 3.72064 33 4.10218 33 4.5V43.5Z" fill="#DC3545"/>
<path d="M28.5 6H7.5C7.10218 6 6.72064 6.15804 6.43934 6.43934C6.15804 6.72064 6 7.10218 6 7.5V16.5C6 16.8978 6.15804 17.2794 6.43934 17.5607C6.72064 17.842 7.10218 18 7.5 18H28.5C28.8978 18 29.2794 17.842 29.5607 17.5607C29.842 17.2794 30 16.8978 30 16.5V7.5C30 7.10218 29.842 6.72064 29.5607 6.43934C29.2794 6.15804 28.8978 6 28.5 6ZM27 15H9V9H27V15Z" fill="#DC3545"/>
<path d="M28.5 21H7.5C7.10218 21 6.72064 21.158 6.43934 21.4393C6.15804 21.7206 6 22.1022 6 22.5V40.5C6 40.8978 6.15804 41.2794 6.43934 41.5607C6.72064 41.842 7.10218 42 7.5 42H28.5C28.8978 42 29.2794 41.842 29.5607 41.5607C29.842 41.2794 30 40.8978 30 40.5V22.5C30 22.1022 29.842 21.7206 29.5607 21.4393C29.2794 21.158 28.8978 21 28.5 21ZM27 30H19.5V24H27V30ZM16.5 24V30H9V24H16.5ZM9 33H16.5V39H9V33ZM19.5 39V33H27V39H19.5Z" fill="#DC3545"/>
</svg>
