<svg width="34" height="38" viewBox="0 0 34 38" fill="none" xmlns="http://www.w3.org/2000/svg">
<path d="M0 37.769V0.231018L2.7695 2.69252L5.6155 0.231018L8.4615 2.69252L11.3075 0.231018L14.154 2.69252L17 0.231018L19.846 2.69252L22.6925 0.231018L25.5385 2.69252L28.3845 0.231018L31.2305 2.69252L34 0.231018V37.769L31.2305 35.3075L28.3845 37.769L25.5385 35.3075L22.6925 37.769L19.846 35.3075L17 37.769L14.154 35.3075L11.3075 37.769L8.4615 35.3075L5.6155 37.769L2.7695 35.3075L0 37.769ZM5.5 27.8845H28.5V24.8845H5.5V27.8845ZM5.5 20.5H28.5V17.5H5.5V20.5ZM5.5 13.1155H28.5V10.1155H5.5V13.1155ZM3 33.2H31V4.80002H3V33.2Z" fill="#4E0362"/>
</svg>
