<svg width="41" height="40" viewBox="0 0 41 40" fill="none" xmlns="http://www.w3.org/2000/svg">
<path d="M40.2013 11.2852V28.7145C40.2013 34.9469 35.1481 40 28.9158 40H11.4864C5.25342 40 0.200317 34.9469 0.200317 28.7145V11.2852C0.200317 5.05217 5.25342 0 11.4864 0H28.9158C35.1481 0 40.2013 5.05217 40.2013 11.2852Z" fill="#ED1C24"/>
<path d="M17.7764 23.6374V16.3637L24.0748 20.0006L17.7764 23.6374ZM31.8165 14.1644C31.5375 13.1216 30.7161 12.3002 29.6733 12.0211C27.7826 11.5146 20.2012 11.5146 20.2012 11.5146C20.2012 11.5146 12.6189 11.5146 10.7282 12.0211C9.68509 12.3002 8.86404 13.1216 8.58495 14.1644C8.07849 16.0551 8.07849 20.0006 8.07849 20.0006C8.07849 20.0006 8.07849 23.9451 8.58495 25.8358C8.86404 26.8786 9.68509 27.7009 10.7282 27.9791C12.6189 28.4861 20.2012 28.4861 20.2012 28.4861C20.2012 28.4861 27.7826 28.4861 29.6733 27.9791C30.7161 27.7009 31.5375 26.8786 31.8165 25.8358C32.3236 23.9451 32.3236 20.0006 32.3236 20.0006C32.3236 20.0006 32.3236 16.0551 31.8165 14.1644Z" fill="white"/>
</svg>
